<mxfile>
    <diagram id="C0kM49krDiLoB0iD_snp" name="Page-1">
        <mxGraphModel dx="1165" dy="599" grid="1" gridSize="10" guides="1" tooltips="1" connect="1" arrows="1" fold="1" page="1" pageScale="1" pageWidth="1100" pageHeight="850" math="0" shadow="0">
            <root>
                <mxCell id="0"/>
                <mxCell id="1" parent="0"/>
                <mxCell id="8GdPBDFvK2qKRAop-OwX-9" value="" style="rounded=1;whiteSpace=wrap;html=1;fillColor=#ffe6cc;strokeColor=#d79b00;" parent="1" vertex="1">
                    <mxGeometry x="90" y="290" width="460" height="340" as="geometry"/>
                </mxCell>
                <mxCell id="8GdPBDFvK2qKRAop-OwX-3" style="edgeStyle=orthogonalEdgeStyle;rounded=0;orthogonalLoop=1;jettySize=auto;html=1;entryX=0.5;entryY=0;entryDx=0;entryDy=0;exitX=0.5;exitY=1;exitDx=0;exitDy=0;" parent="1" source="8GdPBDFvK2qKRAop-OwX-4" edge="1">
                    <mxGeometry relative="1" as="geometry">
                        <mxPoint x="250" y="390.0000000000001" as="targetPoint"/>
                        <mxPoint x="250" y="480" as="sourcePoint"/>
                        <Array as="points">
                            <mxPoint x="250" y="510"/>
                            <mxPoint x="100" y="510"/>
                            <mxPoint x="100" y="320"/>
                            <mxPoint x="250" y="320"/>
                        </Array>
                    </mxGeometry>
                </mxCell>
                <mxCell id="8GdPBDFvK2qKRAop-OwX-2" value="global isButtonPressed&lt;br&gt;isButtonPressed = False" style="text;html=1;strokeColor=none;fillColor=none;align=center;verticalAlign=middle;whiteSpace=wrap;rounded=0;" parent="1" vertex="1">
                    <mxGeometry x="160" y="210" width="140" height="20" as="geometry"/>
                </mxCell>
                <mxCell id="8GdPBDFvK2qKRAop-OwX-32" style="edgeStyle=orthogonalEdgeStyle;rounded=0;orthogonalLoop=1;jettySize=auto;html=1;" parent="1" source="8GdPBDFvK2qKRAop-OwX-4" target="8GdPBDFvK2qKRAop-OwX-31" edge="1">
                    <mxGeometry relative="1" as="geometry"/>
                </mxCell>
                <mxCell id="8GdPBDFvK2qKRAop-OwX-36" style="edgeStyle=orthogonalEdgeStyle;rounded=0;orthogonalLoop=1;jettySize=auto;html=1;" parent="1" source="8GdPBDFvK2qKRAop-OwX-4" target="8GdPBDFvK2qKRAop-OwX-35" edge="1">
                    <mxGeometry relative="1" as="geometry">
                        <Array as="points">
                            <mxPoint x="430" y="400"/>
                        </Array>
                    </mxGeometry>
                </mxCell>
                <mxCell id="8GdPBDFvK2qKRAop-OwX-4" value="isButtonPressed" style="rhombus;whiteSpace=wrap;html=1;" parent="1" vertex="1">
                    <mxGeometry x="190" y="390" width="80" height="80" as="geometry"/>
                </mxCell>
                <mxCell id="8GdPBDFvK2qKRAop-OwX-5" value="isThreadOpen = True&lt;br&gt;isButtonPressed = False" style="rounded=1;whiteSpace=wrap;html=1;" parent="1" vertex="1">
                    <mxGeometry x="230" y="550" width="120" height="60" as="geometry"/>
                </mxCell>
                <mxCell id="8GdPBDFvK2qKRAop-OwX-10" value="tkthread" style="rounded=1;whiteSpace=wrap;html=1;fillColor=#d5e8d4;strokeColor=#82b366;" parent="1" vertex="1">
                    <mxGeometry x="590" y="290" width="460" height="340" as="geometry"/>
                </mxCell>
                <mxCell id="8GdPBDFvK2qKRAop-OwX-17" style="edgeStyle=orthogonalEdgeStyle;rounded=0;orthogonalLoop=1;jettySize=auto;html=1;" parent="1" source="8GdPBDFvK2qKRAop-OwX-11" target="8GdPBDFvK2qKRAop-OwX-14" edge="1">
                    <mxGeometry relative="1" as="geometry">
                        <mxPoint x="690" y="420" as="targetPoint"/>
                    </mxGeometry>
                </mxCell>
                <mxCell id="8GdPBDFvK2qKRAop-OwX-11" value="when someone presses the button" style="rounded=1;whiteSpace=wrap;html=1;fillColor=#f8cecc;strokeColor=#b85450;" parent="1" vertex="1">
                    <mxGeometry x="630" y="330" width="120" height="60" as="geometry"/>
                </mxCell>
                <mxCell id="8GdPBDFvK2qKRAop-OwX-13" value="global isThreadOpen&lt;br&gt;isThreadOpen = False" style="text;html=1;strokeColor=none;fillColor=none;align=center;verticalAlign=middle;whiteSpace=wrap;rounded=0;" parent="1" vertex="1">
                    <mxGeometry x="340" y="210" width="140" height="20" as="geometry"/>
                </mxCell>
                <mxCell id="8GdPBDFvK2qKRAop-OwX-18" style="edgeStyle=orthogonalEdgeStyle;rounded=0;orthogonalLoop=1;jettySize=auto;html=1;entryX=1;entryY=0;entryDx=0;entryDy=0;fillColor=#f8cecc;strokeColor=#b85450;" parent="1" source="8GdPBDFvK2qKRAop-OwX-14" target="8GdPBDFvK2qKRAop-OwX-4" edge="1">
                    <mxGeometry relative="1" as="geometry">
                        <Array as="points">
                            <mxPoint x="570" y="580"/>
                            <mxPoint x="570" y="410"/>
                        </Array>
                    </mxGeometry>
                </mxCell>
                <mxCell id="8GdPBDFvK2qKRAop-OwX-14" value="isButtonPressed = True" style="rounded=1;whiteSpace=wrap;html=1;" parent="1" vertex="1">
                    <mxGeometry x="630" y="550" width="120" height="60" as="geometry"/>
                </mxCell>
                <mxCell id="8GdPBDFvK2qKRAop-OwX-26" value="isThreadOpen = False&lt;br&gt;isButtonPressed = False" style="rounded=1;whiteSpace=wrap;html=1;" parent="1" vertex="1">
                    <mxGeometry x="400" y="550" width="120" height="60" as="geometry"/>
                </mxCell>
                <mxCell id="8GdPBDFvK2qKRAop-OwX-33" style="edgeStyle=orthogonalEdgeStyle;rounded=0;orthogonalLoop=1;jettySize=auto;html=1;" parent="1" source="8GdPBDFvK2qKRAop-OwX-31" target="8GdPBDFvK2qKRAop-OwX-5" edge="1">
                    <mxGeometry relative="1" as="geometry"/>
                </mxCell>
                <mxCell id="8GdPBDFvK2qKRAop-OwX-34" style="edgeStyle=orthogonalEdgeStyle;rounded=0;orthogonalLoop=1;jettySize=auto;html=1;entryX=0.5;entryY=0;entryDx=0;entryDy=0;" parent="1" source="8GdPBDFvK2qKRAop-OwX-31" target="8GdPBDFvK2qKRAop-OwX-26" edge="1">
                    <mxGeometry relative="1" as="geometry"/>
                </mxCell>
                <mxCell id="8GdPBDFvK2qKRAop-OwX-31" value="isThreadOpen" style="rhombus;whiteSpace=wrap;html=1;" parent="1" vertex="1">
                    <mxGeometry x="340" y="425" width="80" height="80" as="geometry"/>
                </mxCell>
                <mxCell id="8GdPBDFvK2qKRAop-OwX-35" value="DO NOTHING" style="shape=parallelogram;perimeter=parallelogramPerimeter;whiteSpace=wrap;html=1;fixedSize=1;" parent="1" vertex="1">
                    <mxGeometry x="370" y="320" width="120" height="60" as="geometry"/>
                </mxCell>
                <mxCell id="8GdPBDFvK2qKRAop-OwX-37" value="False" style="text;html=1;strokeColor=none;fillColor=none;align=center;verticalAlign=middle;whiteSpace=wrap;rounded=0;" parent="1" vertex="1">
                    <mxGeometry x="300" y="370" width="40" height="20" as="geometry"/>
                </mxCell>
                <mxCell id="8GdPBDFvK2qKRAop-OwX-38" value="True" style="text;html=1;strokeColor=none;fillColor=none;align=center;verticalAlign=middle;whiteSpace=wrap;rounded=0;" parent="1" vertex="1">
                    <mxGeometry x="270" y="450" width="40" height="20" as="geometry"/>
                </mxCell>
                <mxCell id="8GdPBDFvK2qKRAop-OwX-39" value="False" style="text;html=1;strokeColor=none;fillColor=none;align=center;verticalAlign=middle;whiteSpace=wrap;rounded=0;" parent="1" vertex="1">
                    <mxGeometry x="300" y="505" width="40" height="20" as="geometry"/>
                </mxCell>
                <mxCell id="8GdPBDFvK2qKRAop-OwX-40" value="True" style="text;html=1;strokeColor=none;fillColor=none;align=center;verticalAlign=middle;whiteSpace=wrap;rounded=0;" parent="1" vertex="1">
                    <mxGeometry x="420" y="505" width="40" height="20" as="geometry"/>
                </mxCell>
                <mxCell id="2" value="This is awesome!" style="text;html=1;align=center;verticalAlign=middle;resizable=0;points=[];autosize=1;" vertex="1" parent="1">
                    <mxGeometry x="75" y="650" width="110" height="20" as="geometry"/>
                </mxCell>
            </root>
        </mxGraphModel>
    </diagram>
</mxfile>